<svg xmlns="http://www.w3.org/2000/svg" xmlns:xlink="http://www.w3.org/1999/xlink" width="1920" zoomAndPan="magnify" viewBox="0 0 1440 809.999993" height="1080" preserveAspectRatio="xMidYMid meet" version="1.0"><defs><clipPath id="026c20a5bf"><path d="M 699.167969 483 L 705 483 L 705 502 L 699.167969 502 Z M 699.167969 483 " clip-rule="nonzero"/></clipPath><clipPath id="2a3d953283"><path d="M 702 454.351562 L 783.167969 454.351562 L 783.167969 539 L 702 539 Z M 702 454.351562 " clip-rule="nonzero"/></clipPath></defs><rect x="-144" width="1728" fill="#ffffff" y="-80.999999" height="971.999992" fill-opacity="1"/><path fill="#007698" d="M 716.910156 458.371094 C 715.125 458.371094 713.632812 459.65625 713.308594 461.347656 C 713.261719 461.574219 713.238281 461.804688 713.238281 462.042969 C 713.238281 462.410156 713.292969 462.765625 713.398438 463.105469 C 713.851562 464.609375 715.253906 465.710938 716.910156 465.710938 C 718.5625 465.710938 719.96875 464.609375 720.421875 463.105469 C 720.523438 462.765625 720.582031 462.410156 720.582031 462.042969 C 720.582031 461.804688 720.554688 461.574219 720.511719 461.347656 C 720.1875 459.65625 718.699219 458.371094 716.910156 458.371094 " fill-opacity="1" fill-rule="nonzero"/><path fill="#007698" d="M 725.953125 485.082031 L 728.226562 491.3125 C 728.363281 491.679688 728.769531 491.871094 729.136719 491.738281 C 729.507812 491.601562 729.695312 491.191406 729.5625 490.824219 L 727.285156 484.59375 C 725.953125 480.945312 722.957031 478.371094 719.464844 477.417969 L 719.21875 478.820312 C 722.226562 479.6875 724.796875 481.929688 725.953125 485.082031 " fill-opacity="1" fill-rule="nonzero"/><g clip-path="url(#026c20a5bf)"><path fill="#007698" d="M 703.691406 501.03125 C 704.058594 500.894531 704.25 500.488281 704.113281 500.117188 L 701.839844 493.886719 C 700.6875 490.734375 701.210938 487.363281 702.953125 484.761719 L 701.859375 483.847656 C 699.804688 486.832031 699.171875 490.726562 700.503906 494.375 L 702.777344 500.605469 C 702.914062 500.976562 703.320312 501.164062 703.691406 501.03125 " fill-opacity="1" fill-rule="nonzero"/></g><path fill="#035db4" d="M 716.523438 479.429688 C 716.792969 479.449219 717.070312 479.484375 717.339844 479.535156 L 717.558594 479.574219 C 718.101562 479.675781 718.621094 479.3125 718.714844 478.769531 L 719 477.128906 C 719.097656 476.59375 718.738281 476.082031 718.207031 475.984375 L 717.988281 475.945312 C 717.582031 475.871094 717.175781 475.820312 716.765625 475.792969 C 715.550781 475.707031 714.589844 476.800781 714.84375 477.992188 C 715.015625 478.796875 715.703125 479.371094 716.523438 479.429688 " fill-opacity="1" fill-rule="nonzero"/><path fill="#035db4" d="M 701.878906 481.960938 C 701.542969 482.375 701.613281 482.984375 702.019531 483.324219 L 703.304688 484.398438 C 703.730469 484.753906 704.359375 484.6875 704.710938 484.261719 C 704.925781 484 705.160156 483.75 705.410156 483.515625 C 706.007812 482.945312 706.160156 482.054688 705.773438 481.328125 C 705.210938 480.277344 703.800781 480.023438 702.933594 480.839844 C 702.558594 481.191406 702.207031 481.5625 701.878906 481.960938 " fill-opacity="1" fill-rule="nonzero"/><g clip-path="url(#2a3d953283)"><path fill="#035db4" d="M 716.910156 468.007812 C 713.984375 468.007812 711.546875 465.886719 711.042969 463.105469 C 710.980469 462.757812 710.941406 462.40625 710.941406 462.042969 C 710.941406 461.804688 710.960938 461.578125 710.988281 461.347656 C 711.332031 458.382812 713.855469 456.074219 716.910156 456.074219 C 719.964844 456.074219 722.488281 458.382812 722.832031 461.347656 C 722.859375 461.578125 722.875 461.804688 722.875 462.042969 C 722.875 462.40625 722.839844 462.757812 722.777344 463.105469 C 722.273438 465.886719 719.835938 468.007812 716.910156 468.007812 Z M 748.488281 495.695312 C 747.78125 497.886719 747.613281 498.324219 747.574219 498.40625 L 747.53125 498.5 C 747.453125 498.734375 747.371094 498.960938 747.296875 499.179688 C 746.796875 497.503906 746.261719 495.8125 745.6875 494.121094 L 737.859375 470.898438 C 735.933594 465.191406 730.582031 461.347656 724.5625 461.347656 C 724.210938 457.4375 720.914062 454.359375 716.910156 454.359375 C 712.90625 454.359375 709.609375 457.4375 709.257812 461.347656 C 709.234375 461.578125 709.226562 461.808594 709.226562 462.042969 C 709.226562 462.402344 709.25 462.757812 709.300781 463.105469 C 709.820312 466.839844 713.03125 469.726562 716.910156 469.726562 C 720.785156 469.726562 724 466.839844 724.519531 463.105469 C 729.8125 463.105469 734.515625 466.480469 736.210938 471.5 L 744.023438 494.683594 C 744.914062 497.296875 745.710938 499.90625 746.398438 502.453125 L 747.238281 505.550781 L 748.09375 502.457031 C 748.328125 501.601562 748.691406 500.484375 749.171875 499.128906 C 749.273438 498.902344 749.488281 498.3125 750.15625 496.238281 L 761.085938 463.105469 L 780.535156 463.105469 L 757.054688 527.21875 C 754.878906 533.15625 749.226562 537.105469 742.902344 537.105469 C 736.617188 537.105469 730.996094 533.203125 728.789062 527.324219 L 723.925781 514.339844 C 724.324219 513.867188 724.464844 513.203125 724.238281 512.578125 L 723.976562 511.855469 C 730.628906 508.480469 733.875 500.5625 731.25 493.382812 L 731.179688 493.183594 C 730.996094 492.679688 730.4375 492.421875 729.933594 492.605469 L 729.085938 492.914062 C 728.578125 493.097656 728.328125 493.660156 728.515625 494.167969 C 730.710938 500.203125 727.890625 506.992188 722.144531 509.582031 C 721.824219 509.726562 721.496094 509.863281 721.152344 509.976562 C 720.9375 510.054688 720.714844 510.121094 720.496094 510.183594 C 714.453125 511.898438 707.992188 508.671875 705.804688 502.675781 L 705.726562 502.460938 C 705.546875 501.96875 704.996094 501.710938 704.5 501.894531 L 703.628906 502.214844 C 703.132812 502.394531 702.875 502.941406 703.054688 503.433594 C 705.691406 510.65625 713.285156 514.800781 720.605469 513.089844 L 720.867188 513.808594 C 721.101562 514.449219 721.660156 514.871094 722.289062 514.964844 L 727.148438 527.9375 C 729.609375 534.507812 735.886719 538.859375 742.902344 538.859375 C 749.964844 538.859375 756.273438 534.449219 758.699219 527.820312 L 783.046875 461.347656 L 759.816406 461.347656 L 748.488281 495.695312 " fill-opacity="1" fill-rule="nonzero"/></g><path fill="#d4ecff" d="M 582.726562 283.609375 C 635.386719 230.609375 620.308594 197.394531 656.339844 172.855469 C 711.785156 135.097656 815.261719 167.582031 876.304688 219.515625 C 951.074219 283.125 989.648438 399.265625 945.703125 504.328125 C 898.90625 616.222656 775.773438 674.308594 665.902344 656.800781 C 567.785156 641.171875 471.332031 563.839844 461.667969 471.097656 C 460.621094 461.042969 455.996094 406.703125 488.429688 359.855469 C 515.234375 321.128906 540.984375 325.617188 582.726562 283.609375 " fill-opacity="1" fill-rule="nonzero"/><path fill="#007698" d="M 540.136719 226.644531 C 575.066406 220.214844 607.316406 236.402344 612.175781 262.796875 C 614.351562 274.609375 610.667969 286.464844 602.808594 296.535156 L 618.527344 320.703125 L 585.519531 311.730469 C 577.507812 316.648438 568.082031 320.332031 557.730469 322.234375 C 522.804688 328.664062 490.550781 312.476562 485.691406 286.078125 C 480.832031 259.683594 505.210938 233.074219 540.136719 226.644531 " fill-opacity="1" fill-rule="nonzero"/><path fill="#042839" d="M 514.96875 231.410156 C 514.675781 231.410156 514.386719 231.273438 514.210938 231.007812 C 513.929688 230.589844 514.042969 230.023438 514.460938 229.746094 C 515.234375 229.222656 516.03125 228.710938 516.820312 228.222656 C 517.246094 227.957031 517.8125 228.089844 518.078125 228.519531 C 518.34375 228.945312 518.207031 229.507812 517.78125 229.773438 C 517.007812 230.25 516.234375 230.75 515.476562 231.257812 C 515.320312 231.363281 515.144531 231.410156 514.96875 231.410156 " fill-opacity="1" fill-rule="nonzero"/><path fill="#042839" d="M 547.65625 316.292969 C 518.605469 316.292969 494.132812 300.890625 489.917969 277.992188 C 487.101562 262.675781 493.703125 246.863281 508.039062 234.613281 C 508.421875 234.285156 508.996094 234.332031 509.324219 234.714844 C 509.652344 235.097656 509.605469 235.671875 509.222656 236 C 495.394531 247.8125 489.015625 262.996094 491.714844 277.660156 C 496.472656 303.519531 528.3125 319.417969 562.6875 313.082031 C 565.265625 312.609375 567.832031 312.015625 570.320312 311.3125 C 570.804688 311.175781 571.308594 311.460938 571.445312 311.945312 C 571.582031 312.429688 571.300781 312.933594 570.8125 313.070312 C 568.273438 313.785156 565.652344 314.394531 563.019531 314.878906 C 557.816406 315.835938 552.664062 316.292969 547.65625 316.292969 " fill-opacity="1" fill-rule="nonzero"/><path fill="#042839" d="M 623.648438 313.359375 C 623.570312 313.359375 623.488281 313.347656 623.410156 313.328125 L 590.78125 304.460938 C 588.414062 305.898438 585.917969 307.230469 583.355469 308.421875 C 582.898438 308.636719 582.359375 308.441406 582.144531 307.984375 C 581.929688 307.527344 582.128906 306.984375 582.585938 306.773438 C 585.207031 305.550781 587.753906 304.179688 590.164062 302.699219 C 590.378906 302.570312 590.636719 302.53125 590.882812 302.597656 L 621.582031 310.9375 L 607.167969 288.777344 C 606.957031 288.449219 606.972656 288.023438 607.214844 287.714844 C 615.179688 277.511719 618.441406 265.789062 616.402344 254.710938 C 614.105469 242.230469 605.492188 231.671875 592.148438 224.972656 C 578.71875 218.234375 562.125 216.210938 545.425781 219.289062 C 541.488281 220.011719 537.597656 221.015625 533.867188 222.269531 C 533.390625 222.429688 532.871094 222.175781 532.710938 221.695312 C 532.550781 221.21875 532.808594 220.703125 533.285156 220.539062 C 537.097656 219.257812 541.074219 218.234375 545.097656 217.492188 C 562.183594 214.351562 579.183594 216.425781 592.964844 223.34375 C 606.832031 230.304688 615.792969 241.328125 618.199219 254.378906 C 620.296875 265.789062 617.046875 277.820312 609.050781 288.324219 L 624.414062 311.949219 C 624.621094 312.265625 624.609375 312.679688 624.386719 312.984375 C 624.210938 313.222656 623.9375 313.359375 623.648438 313.359375 " fill-opacity="1" fill-rule="nonzero"/><path fill="#005eb4" d="M 555.644531 261.890625 C 555.140625 261.890625 554.734375 261.484375 554.734375 260.980469 C 554.730469 260.476562 555.140625 260.070312 555.644531 260.066406 L 599.578125 259.964844 C 599.582031 259.964844 599.582031 259.964844 599.582031 259.964844 C 600.085938 259.964844 600.492188 260.371094 600.492188 260.875 C 600.496094 261.378906 600.085938 261.785156 599.585938 261.789062 L 555.648438 261.890625 C 555.644531 261.890625 555.644531 261.890625 555.644531 261.890625 " fill-opacity="1" fill-rule="nonzero"/><path fill="#005eb4" d="M 505.273438 260.625 C 504.773438 260.625 504.367188 260.21875 504.363281 259.71875 C 504.359375 259.214844 504.765625 258.804688 505.269531 258.800781 L 547.25 258.570312 C 547.25 258.570312 547.253906 258.570312 547.253906 258.570312 C 547.757812 258.570312 548.164062 258.972656 548.167969 259.472656 C 548.171875 259.976562 547.765625 260.390625 547.261719 260.394531 L 505.28125 260.625 C 505.277344 260.625 505.277344 260.625 505.273438 260.625 " fill-opacity="1" fill-rule="nonzero"/><path fill="#005eb4" d="M 597.679688 273.320312 C 597.679688 273.320312 597.675781 273.320312 597.671875 273.320312 L 540.265625 272.609375 C 539.761719 272.601562 539.359375 272.1875 539.367188 271.6875 C 539.371094 271.1875 539.777344 270.785156 540.277344 270.785156 C 540.28125 270.785156 540.285156 270.785156 540.289062 270.785156 L 597.691406 271.496094 C 598.195312 271.5 598.601562 271.914062 598.59375 272.417969 C 598.585938 272.917969 598.179688 273.320312 597.679688 273.320312 " fill-opacity="1" fill-rule="nonzero"/><path fill="#005eb4" d="M 529.148438 272.472656 C 529.144531 272.472656 529.140625 272.472656 529.136719 272.472656 L 503.363281 272.15625 C 502.859375 272.148438 502.457031 271.738281 502.460938 271.230469 C 502.46875 270.734375 502.875 270.332031 503.375 270.332031 C 503.378906 270.332031 503.382812 270.332031 503.386719 270.332031 L 529.15625 270.652344 C 529.664062 270.65625 530.066406 271.070312 530.058594 271.574219 C 530.054688 272.074219 529.644531 272.472656 529.148438 272.472656 " fill-opacity="1" fill-rule="nonzero"/><path fill="#005eb4" d="M 599.320312 283.066406 C 599.316406 283.066406 599.316406 283.066406 599.3125 283.066406 L 578.28125 282.9375 C 577.777344 282.933594 577.371094 282.523438 577.375 282.019531 C 577.378906 281.519531 577.785156 281.113281 578.285156 281.113281 C 578.289062 281.113281 578.289062 281.113281 578.292969 281.113281 L 599.324219 281.242188 C 599.828125 281.246094 600.234375 281.65625 600.230469 282.160156 C 600.226562 282.664062 599.820312 283.066406 599.320312 283.066406 " fill-opacity="1" fill-rule="nonzero"/><path fill="#005eb4" d="M 573.273438 283.015625 C 573.265625 283.015625 573.261719 283.015625 573.257812 283.015625 L 504.996094 281.902344 C 504.492188 281.894531 504.09375 281.480469 504.101562 280.976562 C 504.109375 280.472656 504.515625 280.0625 505.027344 280.078125 L 573.285156 281.191406 C 573.792969 281.203125 574.191406 281.617188 574.183594 282.121094 C 574.175781 282.617188 573.769531 283.015625 573.273438 283.015625 " fill-opacity="1" fill-rule="nonzero"/><path fill="#005eb4" d="M 887.636719 633.480469 L 661.464844 633.480469 C 651.714844 633.480469 644.8125 625.617188 646.039062 615.921875 L 701.734375 176.804688 C 702.960938 167.105469 711.859375 159.246094 721.605469 159.246094 L 936.425781 156.742188 C 961.082031 156.742188 964.429688 167.105469 963.199219 176.804688 L 907.507812 615.921875 C 906.28125 625.617188 897.378906 633.480469 887.636719 633.480469 " fill-opacity="1" fill-rule="nonzero"/><path fill="#ffffff" d="M 874.023438 633.480469 L 647.851562 633.480469 C 638.105469 633.480469 631.203125 625.578125 632.433594 615.832031 L 688.121094 174.476562 C 689.355469 164.730469 698.25 156.828125 707.996094 156.828125 L 934.167969 156.828125 C 943.914062 156.828125 950.820312 164.730469 949.589844 174.476562 L 893.902344 615.832031 C 892.667969 625.578125 883.769531 633.480469 874.023438 633.480469 " fill-opacity="1" fill-rule="nonzero"/><path fill="#d4ecff" d="M 645.320312 616.4375 L 698.496094 195.019531 C 698.78125 192.769531 700.832031 190.945312 703.082031 190.945312 L 930.472656 190.945312 C 932.722656 190.945312 934.316406 192.769531 934.03125 195.019531 L 880.855469 616.4375 C 880.574219 618.691406 878.519531 620.511719 876.269531 620.511719 L 648.878906 620.511719 C 646.628906 620.511719 645.035156 618.691406 645.320312 616.4375 " fill-opacity="1" fill-rule="nonzero"/><path fill="#d4ecff" d="M 818.253906 179.273438 C 814.601562 179.273438 812.015625 176.3125 812.476562 172.660156 C 812.933594 169.011719 816.265625 166.050781 819.917969 166.050781 C 823.570312 166.050781 826.15625 169.011719 825.695312 172.660156 C 825.238281 176.3125 821.90625 179.273438 818.253906 179.273438 " fill-opacity="1" fill-rule="nonzero"/><path fill="#042839" d="M 874.027344 634.390625 L 687.34375 634.390625 C 686.839844 634.390625 686.429688 633.984375 686.429688 633.480469 C 686.429688 632.976562 686.839844 632.566406 687.34375 632.566406 L 874.027344 632.566406 C 883.308594 632.566406 891.824219 625.007812 892.992188 615.71875 L 948.683594 174.363281 C 949.246094 169.886719 948.035156 165.6875 945.265625 162.554688 C 942.53125 159.449219 938.59375 157.738281 934.171875 157.738281 L 707.996094 157.738281 C 698.710938 157.738281 690.199219 165.300781 689.027344 174.589844 L 652.382812 465.007812 C 652.320312 465.503906 651.867188 465.859375 651.363281 465.796875 C 650.863281 465.734375 650.507812 465.277344 650.570312 464.777344 L 687.214844 174.363281 C 688.5 164.191406 697.824219 155.917969 707.996094 155.917969 L 934.171875 155.917969 C 939.121094 155.917969 943.546875 157.847656 946.636719 161.34375 C 949.753906 164.882812 951.128906 169.585938 950.492188 174.589844 L 894.804688 615.945312 C 893.519531 626.117188 884.195312 634.390625 874.027344 634.390625 " fill-opacity="1" fill-rule="nonzero"/><path fill="#042839" d="M 876.269531 621.425781 L 802.25 621.425781 C 801.746094 621.425781 801.335938 621.015625 801.335938 620.511719 C 801.335938 620.011719 801.746094 619.601562 802.25 619.601562 L 876.269531 619.601562 C 878.074219 619.601562 879.726562 618.132812 879.953125 616.328125 L 933.128906 194.902344 C 933.238281 194.074219 933.015625 193.300781 932.511719 192.730469 C 932.011719 192.167969 931.292969 191.855469 930.472656 191.855469 L 703.082031 191.855469 C 701.285156 191.855469 699.628906 193.324219 699.402344 195.132812 L 662.597656 486.796875 C 662.535156 487.296875 662.078125 487.652344 661.578125 487.589844 C 661.082031 487.527344 660.726562 487.070312 660.789062 486.570312 L 697.589844 194.902344 C 697.933594 192.214844 700.394531 190.03125 703.082031 190.03125 L 930.472656 190.03125 C 931.820312 190.03125 933.03125 190.558594 933.875 191.523438 C 934.734375 192.492188 935.113281 193.773438 934.941406 195.132812 L 881.761719 616.550781 C 881.425781 619.242188 878.960938 621.425781 876.269531 621.425781 " fill-opacity="1" fill-rule="nonzero"/><path fill="#042839" d="M 674.808594 444.113281 C 674.808594 444.074219 674.808594 444.035156 674.808594 444 C 675.039062 432.050781 682.433594 419.875 696.785156 407.808594 C 706.847656 399.351562 716.75 394.027344 717.164062 393.800781 C 720.484375 392.027344 724.617188 393.28125 726.390625 396.601562 C 728.164062 399.921875 726.914062 404.054688 723.589844 405.828125 C 713.917969 411.019531 688.753906 428.03125 688.441406 444.261719 C 688.441406 444.285156 688.441406 444.3125 688.441406 444.335938 C 688.355469 449.480469 689.878906 453.488281 693.097656 456.582031 C 700.800781 463.980469 716.425781 464.765625 721.792969 464.445312 C 725.550781 464.222656 728.777344 467.085938 729.003906 470.84375 C 729.230469 474.597656 726.363281 477.832031 722.605469 478.054688 C 721.578125 478.117188 697.191406 479.414062 683.652344 466.414062 C 677.636719 460.632812 674.660156 453.128906 674.808594 444.113281 " fill-opacity="1" fill-rule="nonzero"/><path fill="#005eb4" d="M 723.132812 492.78125 L 723.796875 452.410156 C 723.859375 448.644531 726.960938 445.644531 730.726562 445.703125 C 734.492188 445.765625 737.492188 448.867188 737.429688 452.632812 L 736.765625 493.003906 C 736.707031 496.769531 733.605469 499.769531 729.839844 499.707031 C 726.074219 499.648438 723.074219 496.546875 723.132812 492.78125 " fill-opacity="1" fill-rule="nonzero"/><path fill="#005eb4" d="M 668.082031 322.257812 L 682.324219 322.257812 C 682.890625 322.257812 683.351562 321.800781 683.351562 321.238281 L 683.351562 278.65625 C 683.351562 278.09375 682.894531 277.636719 682.324219 277.636719 L 668.082031 277.636719 C 665.089844 277.636719 662.664062 280.058594 662.664062 283.050781 L 662.664062 316.84375 C 662.664062 319.835938 665.089844 322.257812 668.082031 322.257812 " fill-opacity="1" fill-rule="nonzero"/><path fill="#ffffff" d="M 879.78125 322.257812 L 865.371094 322.257812 L 865.371094 281.945312 L 879.78125 281.945312 C 883.246094 281.945312 886.054688 284.753906 886.054688 288.21875 L 886.054688 315.984375 C 886.054688 319.449219 883.246094 322.257812 879.78125 322.257812 " fill-opacity="1" fill-rule="nonzero"/><path fill="#042839" d="M 866.285156 321.347656 L 868.28125 321.347656 C 877.578125 321.347656 885.144531 313.78125 885.144531 304.484375 L 885.144531 299.71875 C 885.144531 290.421875 877.578125 282.859375 868.28125 282.859375 L 866.285156 282.859375 Z M 868.28125 323.167969 L 865.371094 323.167969 C 864.867188 323.167969 864.460938 322.761719 864.460938 322.257812 L 864.460938 281.945312 C 864.460938 281.441406 864.867188 281.03125 865.371094 281.03125 L 868.28125 281.03125 C 878.585938 281.03125 886.96875 289.414062 886.96875 299.71875 L 886.96875 304.484375 C 886.96875 314.789062 878.585938 323.167969 868.28125 323.167969 " fill-opacity="1" fill-rule="nonzero"/><path fill="#ffffff" d="M 871.890625 300.433594 C 871.890625 257.117188 828.222656 212.308594 774.359375 212.308594 C 720.5 212.308594 676.832031 257.117188 676.832031 300.433594 C 676.832031 343.757812 720.5 369.179688 774.359375 369.179688 C 828.222656 369.179688 871.890625 343.757812 871.890625 300.433594 " fill-opacity="1" fill-rule="nonzero"/><path fill="#042839" d="M 774.359375 213.21875 C 719.0625 213.21875 677.746094 259.265625 677.746094 300.433594 C 677.746094 320.769531 687.484375 338.007812 705.902344 350.296875 C 723.285156 361.886719 747.59375 368.265625 774.359375 368.265625 C 801.128906 368.265625 825.4375 361.886719 842.816406 350.296875 C 861.234375 338.007812 870.976562 320.769531 870.976562 300.433594 C 870.976562 259.265625 829.65625 213.21875 774.359375 213.21875 Z M 774.359375 370.089844 C 747.238281 370.089844 722.5625 363.597656 704.894531 351.8125 C 685.9375 339.171875 675.921875 321.40625 675.921875 300.433594 C 675.921875 278.953125 686.4375 256.730469 704.773438 239.464844 C 724 221.367188 748.710938 211.394531 774.359375 211.394531 C 800.011719 211.394531 824.726562 221.367188 843.945312 239.464844 C 862.28125 256.730469 872.796875 278.953125 872.796875 300.433594 C 872.796875 321.40625 862.78125 339.171875 843.828125 351.8125 C 826.152344 363.597656 801.480469 370.089844 774.359375 370.089844 " fill-opacity="1" fill-rule="nonzero"/><path fill="#ffffff" d="M 749.933594 382.195312 L 798.792969 382.195312 C 820.203125 382.195312 837.5625 399.550781 837.5625 420.964844 C 837.5625 435.113281 836.183594 449.226562 833.445312 463.105469 L 826.417969 498.683594 C 821.511719 523.542969 799.703125 541.46875 774.363281 541.46875 C 749.015625 541.46875 727.210938 523.542969 722.304688 498.683594 L 715.28125 463.105469 C 712.539062 449.226562 711.160156 435.113281 711.160156 420.964844 C 711.160156 399.550781 728.519531 382.195312 749.933594 382.195312 " fill-opacity="1" fill-rule="nonzero"/><path fill="#042839" d="M 749.933594 383.105469 C 729.058594 383.105469 712.070312 400.089844 712.070312 420.964844 C 712.070312 435.023438 713.453125 449.144531 716.175781 462.929688 L 723.199219 498.507812 C 728.011719 522.871094 749.523438 540.550781 774.359375 540.550781 C 799.195312 540.550781 820.714844 522.871094 825.523438 498.507812 L 832.550781 462.929688 C 835.273438 449.144531 836.652344 435.023438 836.652344 420.964844 C 836.652344 400.089844 819.667969 383.105469 798.789062 383.105469 Z M 774.359375 542.378906 C 748.65625 542.378906 726.390625 524.074219 721.410156 498.859375 L 714.386719 463.285156 C 711.640625 449.378906 710.25 435.140625 710.25 420.964844 C 710.25 399.085938 728.046875 381.28125 749.933594 381.28125 L 798.789062 381.28125 C 820.671875 381.28125 838.472656 399.085938 838.472656 420.964844 C 838.472656 435.140625 837.085938 449.378906 834.339844 463.285156 L 827.316406 498.859375 C 822.332031 524.074219 800.066406 542.378906 774.359375 542.378906 " fill-opacity="1" fill-rule="nonzero"/><path fill="#d4ecff" d="M 771.21875 468.101562 L 777.503906 468.101562 C 790.457031 468.101562 800.953125 457.601562 800.953125 444.652344 L 800.953125 382.195312 L 747.769531 382.195312 L 747.769531 444.652344 C 747.769531 457.601562 758.269531 468.101562 771.21875 468.101562 " fill-opacity="1" fill-rule="nonzero"/><path fill="#042839" d="M 800.953125 383.105469 L 747.769531 383.105469 C 747.265625 383.105469 746.855469 382.699219 746.855469 382.195312 C 746.855469 381.691406 747.265625 381.28125 747.769531 381.28125 L 800.953125 381.28125 C 801.460938 381.28125 801.871094 381.691406 801.871094 382.195312 C 801.871094 382.699219 801.460938 383.105469 800.953125 383.105469 " fill-opacity="1" fill-rule="nonzero"/><path fill="#042839" d="M 708.792969 287.4375 L 802.707031 287.4375 C 812.464844 287.4375 820.371094 295.957031 820.371094 306.472656 L 820.371094 318.894531 C 820.371094 326.910156 816.09375 335.40625 808.710938 336.792969 C 782.6875 341.683594 728.8125 341.683594 702.785156 336.792969 C 695.40625 335.40625 691.125 326.910156 691.125 318.894531 L 691.125 306.472656 C 691.125 295.957031 699.039062 287.4375 708.792969 287.4375 " fill-opacity="1" fill-rule="nonzero"/><path fill="#005eb4" d="M 777.820312 312.425781 C 777.820312 315.953125 780.46875 318.804688 783.738281 318.804688 C 787.003906 318.804688 789.65625 315.953125 789.65625 312.425781 C 789.65625 308.90625 787.003906 306.050781 783.738281 306.050781 C 780.46875 306.050781 777.820312 308.90625 777.820312 312.425781 " fill-opacity="1" fill-rule="nonzero"/><path fill="#005eb4" d="M 714.851562 312.425781 C 714.851562 315.953125 717.5 318.804688 720.769531 318.804688 C 724.039062 318.804688 726.6875 315.953125 726.6875 312.425781 C 726.6875 308.90625 724.039062 306.050781 720.769531 306.050781 C 717.5 306.050781 714.851562 308.90625 714.851562 312.425781 " fill-opacity="1" fill-rule="nonzero"/><path fill="#005eb4" d="M 813.113281 349.921875 C 812.726562 349.921875 812.371094 349.679688 812.246094 349.296875 C 812.089844 348.820312 812.347656 348.300781 812.828125 348.144531 L 842.8125 338.273438 C 856.484375 333.769531 864.824219 320.179688 862.648438 305.957031 L 860.488281 291.851562 C 860.410156 291.355469 860.75 290.890625 861.25 290.8125 C 861.753906 290.734375 862.214844 291.078125 862.289062 291.578125 L 864.449219 305.675781 C 866.761719 320.785156 857.90625 335.226562 843.382812 340.003906 L 813.394531 349.875 C 813.304688 349.910156 813.207031 349.921875 813.113281 349.921875 " fill-opacity="1" fill-rule="nonzero"/><path fill="#005eb4" d="M 875.503906 285.785156 C 875.097656 285.785156 874.730469 285.515625 874.625 285.105469 C 874.574219 284.921875 869.546875 266.3125 856.332031 248.257812 C 844.1875 231.664062 822.429688 212.136719 787.6875 213.378906 C 787.195312 213.394531 786.757812 213.003906 786.746094 212.5 C 786.726562 212 787.117188 211.578125 787.621094 211.554688 C 803.308594 211 817.769531 214.507812 830.554688 221.976562 C 840.773438 227.949219 849.953125 236.441406 857.839844 247.230469 C 871.238281 265.558594 876.335938 284.449219 876.386719 284.636719 C 876.515625 285.125 876.222656 285.625 875.738281 285.753906 C 875.65625 285.773438 875.582031 285.785156 875.503906 285.785156 " fill-opacity="1" fill-rule="nonzero"/><path fill="#007698" d="M 849.929688 306.839844 C 848.320312 294.140625 856.460938 282.65625 868.097656 281.183594 C 869.375 281.023438 874.105469 280.898438 875.351562 280.984375 C 885.449219 281.664062 890.660156 290.199219 892.089844 301.507812 C 893.632812 313.699219 888.988281 325.085938 878.085938 327.257812 C 877.632812 327.347656 874.40625 327.605469 873.9375 327.605469 C 861.175781 327.644531 851.535156 319.539062 849.929688 306.839844 " fill-opacity="1" fill-rule="nonzero"/><path fill="#005eb4" d="M 854.960938 306.425781 C 853.605469 293.699219 861.964844 282.378906 873.632812 281.132812 C 885.300781 279.886719 895.859375 289.195312 897.21875 301.921875 C 898.578125 314.648438 890.214844 325.972656 878.550781 327.21875 C 866.882812 328.460938 856.320312 319.152344 854.960938 306.425781 " fill-opacity="1" fill-rule="nonzero"/><path fill="#005eb4" d="M 819.875 353.453125 L 796.519531 355.675781 C 795.625 355.757812 794.824219 355.097656 794.742188 354.203125 L 794.058594 347.019531 C 793.972656 346.125 794.636719 345.324219 795.527344 345.242188 L 818.882812 343.019531 C 819.777344 342.941406 820.578125 343.597656 820.660156 344.492188 L 821.34375 351.675781 C 821.429688 352.570312 820.765625 353.371094 819.875 353.453125 " fill-opacity="1" fill-rule="nonzero"/><path fill="#007698" d="M 724.113281 519.878906 L 815.050781 519.878906 L 779.726562 424.367188 L 688.796875 424.363281 L 724.113281 519.878906 " fill-opacity="1" fill-rule="nonzero"/><path fill="#042839" d="M 724.75 518.96875 L 813.738281 518.96875 L 779.09375 425.277344 L 690.105469 425.277344 Z M 815.050781 520.792969 L 724.113281 520.792969 C 723.734375 520.792969 723.394531 520.554688 723.261719 520.195312 L 687.9375 424.679688 C 687.835938 424.402344 687.875 424.089844 688.046875 423.84375 C 688.21875 423.597656 688.496094 423.453125 688.796875 423.453125 L 779.726562 423.453125 C 780.109375 423.453125 780.453125 423.691406 780.585938 424.050781 L 815.90625 519.5625 C 816.007812 519.84375 815.96875 520.15625 815.796875 520.402344 C 815.628906 520.644531 815.347656 520.792969 815.050781 520.792969 " fill-opacity="1" fill-rule="nonzero"/><path fill="#042839" d="M 836.746094 496.164062 C 850.101562 496.164062 868.171875 494.261719 879.757812 485.378906 C 886.433594 480.261719 890.332031 473.503906 891.347656 465.292969 C 895.90625 428.4375 851.425781 407.339844 849.535156 406.457031 C 846.113281 404.871094 842.0625 406.355469 840.476562 409.773438 C 838.894531 413.183594 840.375 417.234375 843.78125 418.820312 C 844.15625 418.996094 881.15625 436.628906 877.816406 463.621094 C 877.257812 468.128906 875.179688 471.707031 871.460938 474.558594 C 858.722656 484.324219 825.132812 484.078125 815.503906 482.726562 C 811.777344 482.203125 809.949219 484.671875 809.425781 488.398438 C 808.902344 492.128906 811.765625 495.691406 815.503906 496.101562 C 820.902344 496.695312 827.230469 496.164062 836.746094 496.164062 " fill-opacity="1" fill-rule="nonzero"/><path fill="#042839" d="M 786.425781 505.441406 L 799.519531 505.441406 C 806.671875 505.441406 812.601562 500.074219 813.3125 492.957031 L 813.769531 488.398438 C 814.15625 484.507812 812.878906 480.617188 810.253906 477.714844 C 807.628906 474.820312 803.882812 473.15625 799.972656 473.15625 L 779.089844 473.15625 C 775.324219 473.15625 772.273438 476.207031 772.273438 479.976562 C 772.273438 483.738281 775.324219 486.792969 779.089844 486.792969 L 799.972656 486.792969 C 800.011719 486.792969 800.074219 486.792969 800.144531 486.867188 C 800.210938 486.941406 800.207031 487.003906 800.199219 487.042969 L 799.746094 491.601562 C 799.734375 491.71875 799.636719 491.804688 799.519531 491.804688 L 786.425781 491.804688 C 782.660156 491.804688 779.609375 494.855469 779.609375 498.625 C 779.609375 502.386719 782.660156 505.441406 786.425781 505.441406 " fill-opacity="1" fill-rule="nonzero"/><path fill="#007698" d="M 637.21875 174.554688 C 645.40625 171.988281 654.125 176.546875 656.691406 184.734375 C 659.253906 192.921875 654.699219 201.636719 646.511719 204.207031 C 638.324219 206.773438 629.609375 202.210938 627.042969 194.027344 C 624.476562 185.839844 629.03125 177.121094 637.21875 174.554688 Z M 611.175781 195.835938 L 612.980469 201.59375 L 619.546875 201.054688 C 620.203125 202.316406 620.953125 203.503906 621.792969 204.609375 L 618.515625 210.320312 L 622.957031 214.402344 L 628.375 210.652344 C 629.5625 211.402344 630.808594 212.050781 632.097656 212.597656 L 632.113281 219.1875 L 638 220.503906 L 640.816406 214.554688 C 642.203125 214.609375 643.609375 214.546875 645.015625 214.367188 L 648.324219 220.070312 L 654.082031 218.265625 L 653.542969 211.695312 C 654.800781 211.042969 655.988281 210.289062 657.097656 209.453125 L 662.804688 212.730469 L 666.886719 208.289062 L 663.136719 202.867188 C 663.886719 201.6875 664.539062 200.4375 665.082031 199.148438 L 671.671875 199.132812 L 672.992188 193.246094 L 667.039062 190.429688 C 667.097656 189.042969 667.035156 187.640625 666.859375 186.226562 L 672.558594 182.921875 L 670.753906 177.164062 L 664.183594 177.703125 C 663.527344 176.441406 662.777344 175.253906 661.9375 174.148438 L 665.21875 168.441406 L 660.773438 164.359375 L 655.355469 168.109375 C 654.171875 167.359375 652.925781 166.710938 651.632812 166.164062 L 651.621094 159.570312 L 645.730469 158.253906 L 642.917969 164.207031 C 641.527344 164.148438 640.125 164.207031 638.714844 164.390625 L 635.410156 158.6875 L 629.652344 160.496094 L 630.191406 167.0625 C 628.933594 167.71875 627.742188 168.464844 626.636719 169.308594 L 620.929688 166.027344 L 616.84375 170.46875 L 620.597656 175.890625 C 619.84375 177.074219 619.195312 178.320312 618.648438 179.613281 L 612.058594 179.625 L 610.742188 185.515625 L 616.691406 188.328125 C 616.632812 189.71875 616.695312 191.121094 616.875 192.527344 L 611.175781 195.835938 " fill-opacity="1" fill-rule="nonzero"/><path fill="#d4ecff" d="M 577.175781 169.695312 C 582.605469 167.996094 588.386719 171.019531 590.089844 176.449219 C 591.789062 181.878906 588.769531 187.660156 583.339844 189.359375 C 577.910156 191.0625 572.128906 188.039062 570.425781 182.609375 C 568.726562 177.179688 571.746094 171.402344 577.175781 169.695312 Z M 559.902344 183.8125 L 561.101562 187.628906 L 565.457031 187.273438 C 565.890625 188.105469 566.390625 188.898438 566.945312 189.628906 L 564.769531 193.417969 L 567.71875 196.125 L 571.3125 193.632812 C 572.097656 194.132812 572.921875 194.5625 573.78125 194.925781 L 573.789062 199.296875 L 577.695312 200.171875 L 579.5625 196.222656 C 580.480469 196.261719 581.410156 196.21875 582.347656 196.101562 L 584.539062 199.882812 L 588.359375 198.6875 L 588 194.328125 C 588.835938 193.898438 589.625 193.398438 590.359375 192.839844 L 594.144531 195.015625 L 596.851562 192.070312 L 594.363281 188.472656 C 594.859375 187.691406 595.292969 186.863281 595.652344 186.007812 L 600.023438 185.996094 L 600.898438 182.09375 L 596.953125 180.226562 C 596.992188 179.304688 596.949219 178.375 596.832031 177.4375 L 600.613281 175.246094 L 599.414062 171.425781 L 595.058594 171.785156 C 594.625 170.949219 594.125 170.164062 593.566406 169.425781 L 595.746094 165.644531 L 592.796875 162.933594 L 589.203125 165.425781 C 588.417969 164.925781 587.59375 164.492188 586.734375 164.132812 L 586.726562 159.761719 L 582.820312 158.886719 L 580.953125 162.835938 C 580.035156 162.796875 579.101562 162.835938 578.167969 162.957031 L 575.976562 159.175781 L 572.15625 160.371094 L 572.511719 164.730469 C 571.679688 165.164062 570.890625 165.660156 570.15625 166.21875 L 566.371094 164.042969 L 563.664062 166.988281 L 566.152344 170.585938 C 565.65625 171.367188 565.222656 172.195312 564.859375 173.050781 L 560.488281 173.0625 L 559.617188 176.964844 L 563.5625 178.835938 C 563.523438 179.75 563.566406 180.683594 563.683594 181.617188 L 559.902344 183.8125 " fill-opacity="1" fill-rule="nonzero"/><path fill="#042839" d="M 879.765625 215.796875 C 879.71875 215.796875 879.675781 215.792969 879.625 215.785156 C 879.125 215.710938 878.785156 215.242188 878.863281 214.742188 L 879.601562 210.074219 C 879.679688 209.578125 880.152344 209.238281 880.644531 209.316406 C 881.140625 209.394531 881.484375 209.859375 881.402344 210.355469 L 880.667969 215.027344 C 880.597656 215.476562 880.207031 215.796875 879.765625 215.796875 " fill-opacity="1" fill-rule="nonzero"/><path fill="#042839" d="M 877.1875 232.148438 C 877.144531 232.148438 877.089844 232.144531 877.046875 232.132812 C 876.546875 232.054688 876.210938 231.589844 876.285156 231.09375 L 877.023438 226.421875 C 877.101562 225.921875 877.574219 225.585938 878.066406 225.660156 C 878.5625 225.742188 878.90625 226.207031 878.824219 226.703125 L 878.089844 231.375 C 878.019531 231.824219 877.628906 232.148438 877.1875 232.148438 " fill-opacity="1" fill-rule="nonzero"/><path fill="#042839" d="M 873.109375 220.644531 C 873.058594 220.644531 873.003906 220.640625 872.953125 220.628906 L 868.363281 219.835938 C 867.867188 219.75 867.535156 219.277344 867.621094 218.785156 C 867.703125 218.285156 868.171875 217.953125 868.675781 218.039062 L 873.261719 218.832031 C 873.757812 218.917969 874.09375 219.390625 874.007812 219.890625 C 873.929688 220.332031 873.546875 220.644531 873.109375 220.644531 " fill-opacity="1" fill-rule="nonzero"/><path fill="#042839" d="M 889.179688 223.421875 C 889.125 223.421875 889.070312 223.417969 889.019531 223.40625 L 884.429688 222.613281 C 883.933594 222.53125 883.601562 222.054688 883.6875 221.558594 C 883.773438 221.066406 884.238281 220.730469 884.742188 220.816406 L 889.332031 221.609375 C 889.828125 221.695312 890.160156 222.167969 890.074219 222.664062 C 889.996094 223.105469 889.613281 223.421875 889.179688 223.421875 " fill-opacity="1" fill-rule="nonzero"/><path fill="#042839" d="M 856.074219 538.972656 C 856.023438 538.972656 855.976562 538.972656 855.929688 538.960938 C 855.429688 538.882812 855.089844 538.417969 855.167969 537.917969 L 855.90625 533.25 C 855.984375 532.75 856.449219 532.410156 856.949219 532.488281 C 857.445312 532.570312 857.789062 533.035156 857.707031 533.53125 L 856.972656 538.203125 C 856.902344 538.652344 856.511719 538.972656 856.074219 538.972656 " fill-opacity="1" fill-rule="nonzero"/><path fill="#042839" d="M 853.492188 555.324219 C 853.445312 555.324219 853.394531 555.316406 853.347656 555.308594 C 852.847656 555.230469 852.511719 554.765625 852.585938 554.269531 L 853.324219 549.597656 C 853.402344 549.101562 853.871094 548.761719 854.371094 548.839844 C 854.867188 548.917969 855.207031 549.382812 855.125 549.882812 L 854.390625 554.550781 C 854.320312 555 853.929688 555.324219 853.492188 555.324219 " fill-opacity="1" fill-rule="nonzero"/><path fill="#042839" d="M 849.414062 543.820312 C 849.359375 543.820312 849.304688 543.816406 849.257812 543.808594 L 844.667969 543.011719 C 844.167969 542.929688 843.835938 542.457031 843.921875 541.960938 C 844.007812 541.464844 844.476562 541.128906 844.976562 541.214844 L 849.566406 542.007812 C 850.058594 542.097656 850.394531 542.566406 850.308594 543.0625 C 850.234375 543.507812 849.847656 543.820312 849.414062 543.820312 " fill-opacity="1" fill-rule="nonzero"/><path fill="#042839" d="M 865.480469 546.59375 C 865.425781 546.59375 865.375 546.59375 865.324219 546.585938 L 860.734375 545.792969 C 860.238281 545.703125 859.90625 545.234375 859.992188 544.738281 C 860.074219 544.238281 860.542969 543.910156 861.042969 543.992188 L 865.636719 544.785156 C 866.128906 544.871094 866.464844 545.34375 866.378906 545.839844 C 866.300781 546.285156 865.914062 546.59375 865.480469 546.59375 " fill-opacity="1" fill-rule="nonzero"/><path fill="#ffffff" d="M 803.339844 562.90625 C 804.828125 562.695312 806.480469 562.8125 808.296875 563.421875 L 829.875 568.167969 C 829.875 568.167969 825.109375 574.023438 820.144531 574.359375 C 822.832031 578.539062 824.371094 582.25 824.371094 582.25 C 824.371094 582.25 833.9375 584.625 835.90625 585.5 C 837.878906 586.375 840.710938 587.335938 842.089844 589.394531 C 843.480469 591.453125 843.316406 594.558594 843.316406 594.558594 L 820.414062 593.117188 L 799.859375 575.90625 L 762.144531 594.617188 L 763.820312 571.378906 L 803.339844 562.90625 " fill-opacity="1" fill-rule="nonzero"/><path fill="#042839" d="M 820.769531 592.226562 L 842.386719 593.585938 C 842.324219 592.601562 842.097656 591.042969 841.332031 589.902344 C 840.296875 588.359375 838.148438 587.445312 836.417969 586.714844 C 836.109375 586.582031 835.816406 586.457031 835.539062 586.332031 C 833.980469 585.640625 826.789062 583.792969 824.152344 583.136719 C 823.871094 583.066406 823.640625 582.867188 823.527344 582.601562 C 823.515625 582.5625 821.984375 578.90625 819.375 574.851562 C 819.199219 574.582031 819.183594 574.238281 819.328125 573.949219 C 819.476562 573.660156 819.761719 573.472656 820.082031 573.449219 C 823.3125 573.230469 826.542969 570.363281 828.140625 568.722656 L 808.097656 564.3125 C 808.070312 564.308594 808.035156 564.300781 808.003906 564.289062 C 806.457031 563.769531 804.941406 563.609375 803.5 563.804688 L 764.679688 572.128906 L 763.167969 593.09375 L 799.453125 575.089844 C 799.773438 574.929688 800.164062 574.976562 800.441406 575.207031 Z M 762.144531 595.53125 C 761.964844 595.53125 761.785156 595.480469 761.632812 595.375 C 761.363281 595.195312 761.207031 594.878906 761.234375 594.554688 L 762.90625 571.316406 C 762.941406 570.910156 763.230469 570.574219 763.625 570.488281 L 803.148438 562.015625 C 803.167969 562.011719 803.1875 562.003906 803.210938 562.003906 C 804.929688 561.761719 806.722656 561.941406 808.535156 562.542969 L 830.066406 567.28125 C 830.382812 567.347656 830.632812 567.570312 830.738281 567.871094 C 830.839844 568.171875 830.785156 568.5 830.582031 568.746094 C 830.398438 568.972656 826.359375 573.878906 821.644531 575.039062 C 823.433594 577.980469 824.601562 580.5 825.03125 581.476562 C 826.960938 581.960938 834.480469 583.867188 836.277344 584.667969 C 836.546875 584.789062 836.832031 584.910156 837.128906 585.03125 C 839.078125 585.863281 841.503906 586.890625 842.847656 588.886719 C 844.386719 591.171875 844.234375 594.464844 844.222656 594.605469 C 844.214844 594.847656 844.105469 595.074219 843.925781 595.238281 C 843.738281 595.398438 843.503906 595.480469 843.257812 595.464844 L 820.355469 594.027344 C 820.160156 594.015625 819.976562 593.941406 819.824219 593.816406 L 799.730469 576.988281 L 762.546875 595.4375 C 762.421875 595.5 762.28125 595.53125 762.144531 595.53125 " fill-opacity="1" fill-rule="nonzero"/><path fill="#005eb4" d="M 802.246094 582.570312 C 802.246094 582.570312 788.574219 561.289062 788.550781 561.257812 C 787.472656 559.585938 778.480469 562.257812 776.816406 562.355469 C 770.851562 562.699219 764.652344 561.726562 758.707031 561.070312 C 746.015625 559.660156 733.390625 557.617188 720.898438 554.949219 C 710.699219 552.769531 700.441406 550.117188 691.402344 544.910156 C 679.503906 538.054688 673.257812 527.375 668.492188 514.914062 C 664.890625 505.5 660.597656 497.628906 655.222656 489.007812 C 647.273438 476.253906 634.066406 465.78125 623.109375 460.34375 C 606.082031 451.898438 586.28125 447.820312 567.414062 451.582031 C 531.007812 458.847656 506.113281 480.066406 506.113281 480.066406 C 486.304688 495.878906 449.71875 551.015625 462.761719 577.566406 C 478.761719 610.125 521.886719 591.078125 521.886719 591.078125 C 521.886719 591.078125 526.070312 597.910156 517.074219 618.695312 C 506.144531 643.949219 521.984375 647.328125 521.984375 647.328125 C 558.792969 665.328125 656.3125 661.304688 647.996094 641.207031 C 639.09375 619.695312 638.945312 592.421875 638.945312 592.421875 C 651.25 604.589844 677.898438 607.160156 677.898438 607.160156 C 677.898438 607.160156 700.394531 609.289062 714.679688 606.855469 C 794.628906 595 802.246094 582.570312 802.246094 582.570312 " fill-opacity="1" fill-rule="nonzero"/><path fill="#042839" d="M 522.4375 575.195312 C 522.058594 575.195312 521.703125 574.957031 521.574219 574.582031 C 509.386719 539.320312 515.046875 510.835938 515.105469 510.550781 C 515.207031 510.058594 515.695312 509.738281 516.183594 509.84375 C 516.675781 509.945312 516.996094 510.429688 516.890625 510.921875 C 516.835938 511.199219 511.285156 539.222656 523.296875 573.984375 C 523.460938 574.460938 523.210938 574.980469 522.734375 575.144531 C 522.636719 575.179688 522.535156 575.195312 522.4375 575.195312 " fill-opacity="1" fill-rule="nonzero"/><path fill="#042839" d="M 638.222656 593.523438 C 637.992188 593.523438 637.761719 593.441406 637.585938 593.265625 C 618.53125 574.660156 605.269531 531.445312 604.714844 529.613281 C 604.570312 529.132812 604.839844 528.625 605.324219 528.476562 C 605.804688 528.332031 606.3125 528.605469 606.460938 529.085938 C 606.597656 529.53125 620.144531 573.683594 638.859375 591.960938 C 639.21875 592.3125 639.226562 592.890625 638.875 593.25 C 638.695312 593.433594 638.457031 593.523438 638.222656 593.523438 " fill-opacity="1" fill-rule="nonzero"/><path fill="#ffffff" d="M 588.203125 365.355469 C 595.558594 365.390625 602.339844 369.367188 606.035156 375.730469 C 607.746094 378.675781 609.300781 381.425781 609.613281 382.203125 C 610.332031 383.96875 611.90625 389.90625 617.691406 395.628906 C 618.261719 396.195312 618.339844 397.085938 617.847656 397.71875 L 614.140625 402.460938 C 613.886719 402.789062 613.78125 403.203125 613.851562 403.609375 C 614.292969 406.136719 616.5 415.3125 615.847656 416.964844 C 614.464844 420.472656 606.078125 421.421875 603.59375 421.628906 C 603.125 421.667969 602.710938 421.929688 602.484375 422.335938 C 601.679688 423.792969 599.550781 427.960938 597.808594 438.351562 C 595.148438 454.1875 610.242188 456.648438 607.167969 458.203125 C 585.722656 469.027344 546.230469 466.5625 548.519531 462.0625 C 550.402344 458.359375 572.074219 448.773438 574.089844 422.726562 C 575.347656 406.480469 552.601562 405.148438 568.992188 374.230469 C 572.800781 367.042969 581.046875 365.320312 588.203125 365.355469 " fill-opacity="1" fill-rule="nonzero"/><path fill="#042839" d="M 549.359375 462.421875 C 549.457031 462.539062 549.804688 462.855469 550.914062 463.242188 C 558.625 465.929688 588.144531 466.539062 606.335938 457.597656 C 606.042969 457.367188 605.636719 457.082031 605.28125 456.832031 C 601.941406 454.496094 594.988281 449.636719 596.90625 438.199219 C 598.136719 430.894531 599.742188 425.40625 601.6875 421.898438 C 602.058594 421.226562 602.742188 420.785156 603.515625 420.722656 C 608.222656 420.332031 614.054688 419.023438 615 416.628906 C 615.398438 415.582031 614.054688 409.136719 613.480469 406.386719 C 613.253906 405.296875 613.058594 404.355469 612.953125 403.765625 C 612.839844 403.109375 613.011719 402.425781 613.425781 401.898438 L 617.128906 397.160156 C 617.332031 396.898438 617.300781 396.523438 617.046875 396.277344 C 611.867188 391.148438 609.988281 385.910156 609.085938 383.394531 C 608.960938 383.050781 608.859375 382.761719 608.769531 382.542969 C 608.625 382.191406 607.976562 380.898438 605.246094 376.1875 C 601.710938 370.101562 595.179688 366.300781 588.199219 366.265625 C 588.136719 366.265625 588.070312 366.265625 588.007812 366.265625 C 581.683594 366.265625 573.464844 367.738281 569.796875 374.65625 C 559.65625 393.789062 564.753906 401.117188 569.683594 408.203125 C 572.535156 412.300781 575.484375 416.539062 575 422.792969 C 573.417969 443.203125 560.195312 453.558594 553.089844 459.125 C 551.304688 460.523438 549.757812 461.734375 549.359375 462.421875 Z M 567.453125 466.789062 C 557.628906 466.789062 549.890625 465.539062 548.109375 463.753906 C 547.488281 463.132812 547.34375 462.363281 547.707031 461.648438 C 548.234375 460.609375 549.71875 459.445312 551.964844 457.6875 C 558.847656 452.296875 571.664062 442.265625 573.179688 422.652344 C 573.613281 417.042969 570.976562 413.257812 568.1875 409.246094 C 563.1875 402.058594 557.523438 393.917969 568.183594 373.804688 C 571.433594 367.675781 578.28125 364.441406 588.003906 364.441406 C 588.070312 364.441406 588.140625 364.441406 588.207031 364.441406 C 595.832031 364.476562 602.964844 368.628906 606.824219 375.273438 C 610.027344 380.792969 610.351562 381.597656 610.460938 381.855469 C 610.554688 382.09375 610.667969 382.40625 610.800781 382.78125 C 611.660156 385.171875 613.445312 390.144531 618.332031 394.980469 C 619.238281 395.875 619.335938 397.296875 618.5625 398.28125 L 614.859375 403.019531 C 614.761719 403.144531 614.722656 403.300781 614.75 403.453125 C 614.847656 404.015625 615.042969 404.941406 615.265625 406.015625 C 616.617188 412.484375 617.207031 416.003906 616.695312 417.296875 C 615.167969 421.179688 607.074219 422.253906 603.667969 422.539062 C 603.503906 422.550781 603.355469 422.644531 603.28125 422.78125 C 600.984375 426.925781 599.527344 433.617188 598.707031 438.5 C 596.976562 448.796875 603.058594 453.054688 606.328125 455.339844 C 607.71875 456.308594 608.558594 456.898438 608.492188 457.820312 C 608.46875 458.167969 608.289062 458.65625 607.578125 459.015625 C 596.300781 464.707031 580.140625 466.789062 567.453125 466.789062 " fill-opacity="1" fill-rule="nonzero"/><path fill="#042839" d="M 600.707031 390.394531 L 609.289062 379.65625 C 613.691406 374.144531 612.152344 366.03125 606.058594 362.476562 C 604.371094 361.492188 602.386719 360.460938 600.167969 359.507812 C 578.132812 350.019531 552.886719 365.679688 552.863281 389.667969 C 552.855469 399.488281 559.421875 410.871094 573.371094 420.988281 C 573.371094 420.988281 583.175781 413.257812 583.050781 404.894531 C 583.050781 404.894531 575.9375 396.449219 585.960938 392.179688 C 587.878906 391.363281 590.070312 391.425781 591.941406 392.347656 C 594.960938 393.835938 598.609375 393.023438 600.707031 390.394531 " fill-opacity="1" fill-rule="nonzero"/><path fill="#042839" d="M 587.636719 409.648438 C 584.785156 409.648438 581.144531 408.433594 578.4375 403.316406 C 578.203125 402.871094 578.371094 402.316406 578.816406 402.082031 C 579.261719 401.84375 579.8125 402.015625 580.050781 402.460938 C 584.320312 410.539062 591.027344 407.179688 591.3125 407.03125 C 591.757812 406.800781 592.308594 406.972656 592.542969 407.417969 C 592.773438 407.863281 592.605469 408.414062 592.160156 408.644531 C 592.117188 408.667969 590.195312 409.648438 587.636719 409.648438 " fill-opacity="1" fill-rule="nonzero"/><path fill="#042839" d="M 564.347656 366.894531 C 564.347656 366.894531 556.90625 341.15625 529.761719 346 C 512.816406 349.023438 498.015625 360.414062 489.882812 378.996094 C 483.867188 392.746094 484.113281 404.917969 482.792969 419.332031 C 481.609375 432.226562 470.128906 440.835938 467.527344 453.097656 C 464.351562 468.066406 478.917969 478.863281 492.957031 476.078125 C 508.636719 472.972656 523.183594 456.582031 529.601562 442.847656 C 536.238281 428.652344 537.332031 412.886719 540.6875 397.785156 C 542.140625 391.242188 543.238281 382.203125 548.449219 377.675781 C 551.121094 375.347656 559.917969 375.089844 561.441406 372.273438 C 561.445312 372.269531 564.347656 366.894531 564.347656 366.894531 " fill-opacity="1" fill-rule="nonzero"/></svg>